<svg width="3993" height="1549" viewBox="0 0 3993 1549" fill="none" xmlns="http://www.w3.org/2000/svg">
<path d="M2799.2 505.7C2799.2 489.254 2785.88 475.933 2769.43 475.933H2471.77C2455.32 475.933 2442 489.254 2442 505.7V743.833C2442 760.279 2455.32 773.6 2471.77 773.6H2769.43C2785.88 773.6 2799.2 760.279 2799.2 743.833V505.7ZM2739.67 714.066H2501.53V535.466H2739.67V714.066Z" fill="white"/>
<path d="M1429.53 119.067C1429.53 86.1819 1456.18 59.5333 1489.07 59.5333H2917.87C2950.75 59.5333 2977.4 86.1819 2977.4 119.067V930.5H3036.93V119.067C3036.93 53.3121 2983.62 0 2917.87 0H1489.07C1423.31 0 1370 53.3121 1370 119.067V1131.13C1370 1196.89 1423.31 1250.2 1489.07 1250.2H2014.63L1943.19 1488.33H1876.03V1547.87H2530.9V1488.33H2463.75L2392.31 1250.2H2777V1190.67H1489.07C1456.18 1190.67 1429.53 1164.02 1429.53 1131.13V1071.6H2779V1012.07H1429.53V119.067ZM2076.78 1250.2H2330.15L2401.59 1488.33H2005.34L2076.78 1250.2Z" fill="white"/>
<path d="M2917.87 931.5V148.833C2917.87 132.387 2904.55 119.066 2888.1 119.066H1518.83C1502.39 119.066 1489.07 132.387 1489.07 148.833V952.533H1548.6V416.733H2858.33V931.5H2888.5H2917.87ZM1548.6 357.2V178.6H2858.33V357.2H1548.6Z" fill="white"/>
<path d="M1637.9 238.133H1816.5V297.666H1637.9V238.133Z" fill="white"/>
<path d="M1876.03 238.133H2054.63V297.666H1876.03V238.133Z" fill="white"/>
<path d="M2114.17 238.133H2292.77V297.666H2114.17V238.133Z" fill="white"/>
<path d="M2352.3 238.133H2530.9V297.666H2352.3V238.133Z" fill="white"/>
<path d="M1965.33 506.033C1965.33 489.587 1952.01 476.266 1935.57 476.266H1637.9C1621.45 476.266 1608.13 489.587 1608.13 506.033V744.166C1608.13 760.612 1621.45 773.933 1637.9 773.933H1935.57C1952.01 773.933 1965.33 760.612 1965.33 744.166V506.033ZM1905.8 714.4H1667.67V535.8H1905.8V714.4Z" fill="white"/>
<path d="M2382.07 506.033C2382.07 489.587 2368.75 476.266 2352.3 476.266H2054.63C2038.19 476.266 2024.87 489.587 2024.87 506.033V744.166C2024.87 760.612 2038.19 773.933 2054.63 773.933H2352.3C2368.75 773.933 2382.07 760.612 2382.07 744.166V506.033ZM2322.53 714.4H2084.4V535.8H2322.53V714.4Z" fill="white"/>
<path d="M1965.33 952.533V863.233C1965.33 846.787 1952.01 833.466 1935.57 833.466H1637.9C1621.45 833.466 1608.13 846.787 1608.13 863.233V952.533H1667.67V893H1905.8V952.533H1965.33Z" fill="white"/>
<path d="M2382.07 952.533V863.233C2382.07 846.787 2368.75 833.466 2352.3 833.466H2054.63C2038.19 833.466 2024.87 846.787 2024.87 863.233V952.533H2084.4V893H2203.47H2322.53V952.533H2382.07Z" fill="white"/>
<path d="M3080.84 952.933H2874.16C2832.65 952.933 2799 986.235 2799 1027.31V1473.56C2799 1514.63 2832.65 1547.93 2874.16 1547.93H3080.84C3122.35 1547.93 3156 1514.63 3156 1473.56V1027.31C3156 986.235 3122.35 952.933 3080.84 952.933ZM3118.42 1473.56C3118.42 1494.1 3101.6 1510.75 3080.84 1510.75H2874.16C2853.4 1510.75 2836.58 1494.1 2836.58 1473.56V1454.96H3118.42V1473.56ZM3118.42 1417.78H2836.58V1027.31C2836.58 1006.77 2853.4 990.121 2874.16 990.121H3080.84C3101.6 990.121 3118.42 1006.77 3118.42 1027.31V1417.78Z" fill="white"/>
<path d="M3062.18 1101.93H2892.82C2882.42 1101.93 2874 1110.26 2874 1120.53V1269.33C2874 1279.61 2882.42 1287.93 2892.82 1287.93H3062.18C3072.58 1287.93 3081 1279.61 3081 1269.33V1120.53C3081 1110.26 3072.58 1101.93 3062.18 1101.93ZM3043.36 1250.73H2911.64V1139.13H3043.36V1250.73Z" fill="white"/>
<path d="M3062.18 1324.93H2892.82C2882.42 1324.93 2874 1333.29 2874 1343.6V1380.93H2911.64V1362.27H3043.36V1380.93H3081V1343.6C3081 1333.29 3072.58 1324.93 3062.18 1324.93Z" fill="white"/>
<path d="M2874 1026.93H3081V1064.93H2874V1026.93Z" fill="white"/>
<path d="M2799.2 952.067V862.767C2799.2 846.321 2785.88 833 2769.43 833H2471.77C2455.32 833 2442 846.321 2442 862.767V952.067H2501.53V892.533H2620.6H2739.67V952.067H2799.2Z" fill="white"/>
<path d="M1299.97 1372.2H1255.9V689.167C1255.82 628.355 1206.55 579.077 1145.73 579H176.267C115.455 579.077 66.1771 628.355 66.1 689.167V1372.2H22.0333C9.85992 1372.2 0 1382.06 0 1394.23V1460.33C0 1509 39.4617 1548.47 88.1333 1548.47H1233.87C1282.54 1548.47 1322 1509 1322 1460.33V1394.23C1322 1382.06 1312.14 1372.2 1299.97 1372.2ZM110.167 689.167C110.167 652.668 139.768 623.067 176.267 623.067H1145.73C1182.23 623.067 1211.83 652.668 1211.83 689.167V1372.2H1167.77V733.233C1167.77 696.735 1138.16 667.133 1101.67 667.133H220.333C183.835 667.133 154.233 696.735 154.233 733.233V1372.2H110.167V689.167ZM1123.7 733.233V1372.2H795.8C772.279 1372.07 750.758 1385.36 740.32 1406.42C737.346 1412.48 731.149 1416.31 724.39 1416.27H597.5C590.736 1416.31 584.555 1412.48 581.57 1406.42C571.148 1385.39 549.671 1372.12 526.2 1372.2H198.3V733.233C198.3 721.06 208.16 711.2 220.333 711.2H1101.67C1113.84 711.2 1123.7 721.06 1123.7 733.233ZM1277.93 1460.33C1277.93 1484.67 1258.21 1504.4 1233.87 1504.4H88.1333C63.792 1504.4 44.0667 1484.67 44.0667 1460.33V1416.27H526.2C532.964 1416.22 539.145 1420.06 542.13 1426.12C552.552 1447.15 574.029 1460.42 597.5 1460.33H724.5C748.021 1460.47 769.542 1447.17 779.98 1426.12C782.949 1420.09 789.074 1416.27 795.8 1416.27H1277.93V1460.33Z" fill="white"/>
<path d="M661 843.4C542.097 843.455 431.236 903.408 366.095 1002.87C300.964 1102.35 290.322 1227.94 337.815 1336.95L378.202 1319.32C364.244 1287.2 355.943 1252.91 353.646 1217.97H397.592C401.172 1261.55 415.571 1303.54 439.455 1340.17L476.388 1316.1C416.485 1223.99 433.588 1101.82 516.505 1029.72C599.411 957.615 722.759 957.615 805.676 1029.72C888.577 1101.82 905.702 1223.99 845.799 1316.1L882.716 1340.17C906.55 1303.52 920.883 1261.53 924.409 1217.97H968.354C966.057 1252.91 957.756 1287.2 943.798 1319.32L984.185 1336.95C1031.68 1227.94 1021.04 1102.35 955.905 1002.87C890.764 903.408 779.903 843.455 661 843.4ZM397.713 1173.9H353.646C358.345 1107.52 384.482 1044.45 428.152 994.245L459.29 1025.37C423.762 1067.25 402.246 1119.17 397.713 1173.9ZM638.967 932.646C584.241 937.179 532.314 958.695 490.434 994.223L459.312 963.085C509.521 919.415 572.591 893.278 638.967 888.579V932.646ZM831.566 994.223C789.686 958.695 737.759 937.179 683.033 932.646V888.579C749.409 893.278 812.479 919.415 862.688 963.085L831.566 994.223ZM924.287 1173.9C919.754 1119.17 898.238 1067.25 862.71 1025.37L893.848 994.245C937.518 1044.45 963.655 1107.52 968.354 1173.9H924.287Z" fill="white"/>
<path d="M689.313 1136.44C680.494 1132.14 670.81 1129.88 661 1129.83C624.502 1129.83 594.9 1159.43 594.9 1195.93C594.9 1232.43 624.502 1262.03 661 1262.03C697.498 1262.03 727.1 1232.43 727.1 1195.93C727.056 1186.12 724.792 1176.44 720.49 1167.62L808.794 1079.31L777.639 1048.16L689.313 1136.44ZM661 1217.97C648.827 1217.97 638.967 1208.11 638.967 1195.93C638.967 1183.76 648.827 1173.9 661 1173.9C673.173 1173.9 683.033 1183.76 683.033 1195.93C683.033 1208.11 673.173 1217.97 661 1217.97Z" fill="white"/>
<path d="M572.867 1306.1H683.033V1350.17H572.867V1306.1Z" fill="white"/>
<path d="M727.1 1306.1H771.167V1350.17H727.1V1306.1Z" fill="white"/>
<path d="M242.367 755.266H286.433V799.333H242.367V755.266Z" fill="white"/>
<path d="M418.633 755.266H462.7V799.333H418.633V755.266Z" fill="white"/>
<path d="M242.367 843.4H352.533V887.466H242.367V843.4Z" fill="white"/>
<path d="M881.333 755.266H1079.63V799.333H881.333V755.266Z" fill="white"/>
<path d="M947.433 843.4H1079.63V887.466H947.433V843.4Z" fill="white"/>
<path d="M330.5 755.266H374.567V799.333H330.5V755.266Z" fill="white"/>
<path d="M3983 1242.5H3901V1221.33C3901 1215.81 3896.52 1211.33 3891 1211.33H3675C3669.48 1211.33 3665 1215.81 3665 1221.33C3665 1226.86 3669.48 1231.33 3675 1231.33H3881V1308C3881 1375.35 3845.04 1437.94 3786.98 1472H3595.02C3536.96 1437.94 3501 1375.35 3501 1308V1231.33H3568C3573.52 1231.33 3578 1226.86 3578 1221.33C3578 1215.81 3573.52 1211.33 3568 1211.33H3491C3485.48 1211.33 3481 1215.81 3481 1221.33V1308C3481 1345.8 3491.16 1382.86 3510.38 1415.18C3523.35 1436.98 3540.17 1456.23 3559.86 1472H3491C3485.48 1472 3481 1476.48 3481 1482C3481 1518.39 3510.61 1548 3547 1548H3859C3895.39 1548 3925 1518.39 3925 1482C3925 1476.48 3920.52 1472 3915 1472H3822.14C3840.27 1457.48 3855.95 1440.02 3868.44 1420.33H3896.67C3949.79 1420.33 3993 1377.12 3993 1324V1252.5C3993 1246.98 3988.52 1242.5 3983 1242.5ZM3903.9 1492C3899.33 1512.57 3880.93 1528 3859 1528H3547C3525.07 1528 3506.67 1512.57 3502.09 1492H3592.34H3789.66H3903.9ZM3901 1308V1302.5H3933V1324C3933 1344.03 3916.7 1360.33 3896.67 1360.33H3894.4C3898.76 1343.33 3901 1325.75 3901 1308ZM3973 1324C3973 1366.09 3938.76 1400.33 3896.67 1400.33H3879.65C3882.84 1393.81 3885.69 1387.14 3888.18 1380.33H3896.67C3927.73 1380.33 3953 1355.06 3953 1324V1292.5C3953 1286.98 3948.52 1282.5 3943 1282.5H3901V1262.5H3973V1324Z" fill="white"/>
<path d="M3700.55 1091.34L3695.35 1084.81C3687.71 1075.22 3687.7 1061.82 3695.32 1052.22C3698.75 1047.89 3698.03 1041.6 3693.7 1038.17C3689.38 1034.73 3683.09 1035.46 3679.65 1039.78C3666.21 1056.72 3666.23 1080.36 3679.7 1097.27L3684.9 1103.8C3694.89 1116.33 3694.9 1133.85 3684.94 1146.4L3679.61 1153.12C3676.17 1157.44 3676.9 1163.73 3681.22 1167.17C3683.06 1168.62 3685.26 1169.33 3687.43 1169.33C3690.38 1169.33 3693.3 1168.04 3695.27 1165.55L3700.61 1158.83C3716.39 1138.95 3716.36 1111.2 3700.55 1091.34Z" fill="white"/>
<path d="M3755.98 1113.83L3750.78 1107.3C3743.14 1097.71 3743.13 1084.3 3750.75 1074.7C3754.18 1070.38 3753.46 1064.09 3749.13 1060.65C3744.81 1057.22 3738.52 1057.94 3735.08 1062.27C3721.64 1079.2 3721.66 1102.84 3735.13 1119.76L3740.33 1126.29C3750.31 1138.82 3750.33 1156.34 3740.37 1168.88L3735.04 1175.6C3731.6 1179.93 3732.33 1186.22 3736.65 1189.65C3738.49 1191.11 3740.69 1191.82 3742.86 1191.82C3745.81 1191.82 3748.73 1190.52 3750.7 1188.03L3756.03 1181.32C3771.82 1161.44 3771.79 1133.68 3755.98 1113.83Z" fill="white"/>
<path d="M3645.12 1113.83L3639.92 1107.3C3632.28 1097.71 3632.27 1084.3 3639.89 1074.7C3643.32 1070.38 3642.6 1064.09 3638.27 1060.65C3633.95 1057.22 3627.66 1057.94 3624.22 1062.27C3610.78 1079.2 3610.8 1102.84 3624.27 1119.76L3629.48 1126.29C3639.46 1138.82 3639.47 1156.34 3629.51 1168.88L3624.18 1175.6C3620.75 1179.93 3621.47 1186.22 3625.8 1189.65C3627.63 1191.11 3629.83 1191.82 3632.01 1191.82C3634.95 1191.82 3637.87 1190.52 3639.84 1188.04L3645.18 1181.32C3660.96 1161.44 3660.93 1133.68 3645.12 1113.83Z" fill="white"/>
<path d="M3631.28 1214.26C3629.42 1212.4 3626.84 1211.33 3624.21 1211.33C3621.58 1211.33 3619 1212.4 3617.14 1214.26C3615.28 1216.13 3614.21 1218.7 3614.21 1221.33C3614.21 1223.96 3615.28 1226.54 3617.14 1228.41C3619 1230.27 3621.58 1231.33 3624.21 1231.33C3626.84 1231.33 3629.42 1230.27 3631.28 1228.41C3633.15 1226.54 3634.21 1223.97 3634.21 1221.33C3634.21 1218.7 3633.15 1216.12 3631.28 1214.26Z" fill="white"/>
<path d="M3843 1298C3837.48 1298 3833 1302.48 3833 1308C3833 1345.12 3817.94 1381.6 3791.69 1408.08C3787.8 1412.01 3787.83 1418.34 3791.76 1422.23C3793.71 1424.16 3796.25 1425.12 3798.8 1425.12C3801.37 1425.12 3803.94 1424.13 3805.9 1422.16C3835.83 1391.96 3853 1350.35 3853 1308C3853 1302.48 3848.52 1298 3843 1298Z" fill="white"/>
<path d="M3774.89 1435.23C3772.17 1430.41 3766.07 1428.72 3761.26 1431.43L3761.03 1431.56C3756.22 1434.27 3754.52 1440.37 3757.24 1445.18C3759.08 1448.44 3762.46 1450.27 3765.96 1450.27C3767.62 1450.27 3769.31 1449.85 3770.86 1448.98L3771.09 1448.85C3775.9 1446.13 3777.6 1440.04 3774.89 1435.23Z" fill="white"/>
</svg>
