<svg width="496" height="496" viewBox="0 0 496 496" fill="none" xmlns="http://www.w3.org/2000/svg">
<g clip-path="url(#clip0)">
<path d="M92.7539 496H365.266C388.039 496 406.828 480.168 410.523 459.41C432.406 456 449 437.855 449 416.012V105.359C449.059 103.375 448.367 101.441 447.059 99.9492C446.672 99.3984 446.211 98.9023 445.695 98.4726L353.512 4.51952C353.004 3.77734 352.375 3.1289 351.652 2.60155L351.414 2.37109C349.91 0.847648 347.855 -0.00782049 345.715 -7.99101e-06H130.734C107.961 -7.99101e-06 89.1719 15.8359 85.4766 36.5898C63.5938 40 47 58.1445 47 79.9883V452.043C47 476.309 67.3438 496 92.7539 496V496ZM355 28.8164L421.672 97H366.027C359.938 97 355 92.2695 355 86.7539V28.8164ZM130.734 16H339V86.7539C339 101.09 351.117 113 366.027 113H433V416.012C433 431.453 419.836 444 403.246 444H130.734C114.145 444 101 431.453 101 416.012V45.2266C101 44.8203 100.93 44.4062 100.93 43.9844C100.898 43.6367 100.844 43.2891 100.766 42.9492C101.352 27.9844 114.516 16 130.734 16V16ZM63 79.9883C63 67.1601 72 56.3281 85 53.0234V416.012C85 440.273 105.324 460 130.734 460H394.102C390.398 472 378.879 480 365.266 480H92.7539C76.168 480 63 467.484 63 452.043V79.9883Z" fill="#1A3300"/>
<path d="M142.793 236H274.324C278.742 236 282 232.016 282 227.602V211.199C282.062 202.156 278.516 193.457 272.145 187.039C265.773 180.617 257.102 177.004 248.059 177H237V168.379C248 159.715 254 146.547 254 131.824V101H255.645C257.754 101.031 259.785 100.219 261.289 98.7383C262.793 97.2617 263.641 95.2461 263.645 93.1367C263.609 74.2461 248.266 58.9609 229.371 59H202.328C198.09 58.9648 193.941 60.1875 190.398 62.5117C172.758 69.5508 161.133 86.5742 161 105.57V131.824C161 147.258 169 160.988 180 169.605V177H169.063C160.008 177 151.324 180.609 144.934 187.023C138.539 193.437 134.969 202.137 135 211.191V227.602C135 232.016 138.375 236 142.793 236ZM266 211.191V220H216V202.492L231.387 193H248.059C252.859 193 257.461 194.926 260.832 198.344C264.203 201.762 266.066 206.391 266 211.191ZM202.328 75H229.371C236.309 74.9297 242.676 78.8086 245.801 85H202.328C199.566 85 197.328 82.7617 197.328 80C197.328 77.2383 199.566 75 202.328 75ZM188 95.4492C184.953 97.6953 181.48 99.3008 177.797 100.172C178.586 95.8398 180.305 91.7266 182.836 88.1172C184.012 90.9023 185.773 93.4023 188 95.4492ZM177 116.477C185 115.492 195.82 112 205.359 101H238V131.824C238 148.738 224.012 163.031 207.5 163.031C190.988 163.031 177 148.738 177 131.824V116.477ZM207.73 179.031C212.23 179.051 216.707 178.375 221 177.031V180.48L208.109 188.562L196 180.594V177.477C199.828 178.496 203.77 179.02 207.73 179.031ZM151 211.191C150.961 206.379 152.848 201.746 156.242 198.332C159.633 194.914 164.25 192.996 169.063 193H185.535L200 202.379V220H151V211.191Z" fill="#1A3300"/>
<path d="M142.793 284H274.324C278.746 284 282.324 280.418 282.324 276C282.324 271.582 278.746 268 274.324 268H142.793C138.375 268 134.793 271.582 134.793 276C134.793 280.418 138.375 284 142.793 284Z" fill="#1A3300"/>
<path d="M142.793 323H371.707C376.125 323 379.707 319.418 379.707 315C379.707 310.582 376.125 307 371.707 307H142.793C138.375 307 134.793 310.582 134.793 315C134.793 319.418 138.375 323 142.793 323V323Z" fill="#1A3300"/>
<path d="M142.793 362H371.707C376.125 362 379.707 358.418 379.707 354C379.707 349.582 376.125 346 371.707 346H142.793C138.375 346 134.793 349.582 134.793 354C134.793 358.418 138.375 362 142.793 362V362Z" fill="#1A3300"/>
<path d="M142.793 401H371.707C376.125 401 379.707 397.418 379.707 393C379.707 388.582 376.125 385 371.707 385H142.793C138.375 385 134.793 388.582 134.793 393C134.793 397.418 138.375 401 142.793 401V401Z" fill="#1A3300"/>
</g>
<defs>
<clipPath id="clip0">
<rect width="496" height="496" fill="white"/>
</clipPath>
</defs>
</svg>
