<svg width="487" height="487" viewBox="0 0 487 487" fill="none" xmlns="http://www.w3.org/2000/svg">
<path d="M175.732 170.483H237.637C242.048 170.483 245.625 166.906 245.625 162.495C245.625 158.084 242.048 154.507 237.637 154.507H175.732C171.32 154.507 167.744 158.084 167.744 162.495C167.744 166.906 171.32 170.483 175.732 170.483Z" fill="#1A3300"/>
<path d="M336.58 210.379C272.755 210.379 221.018 262.116 221.018 325.94C221.014 389.765 272.751 441.502 336.576 441.506C400.4 441.506 452.137 389.769 452.141 325.944C452.071 262.151 400.377 210.453 336.58 210.379V210.379ZM336.58 425.527C281.578 425.527 236.99 380.942 236.993 325.94C236.993 270.939 281.582 226.354 336.583 226.354C391.581 226.354 436.17 270.946 436.166 325.944C436.099 380.919 391.55 425.464 336.58 425.527V425.527Z" fill="#1A3300"/>
<path d="M378.445 327.243H338.483V272.116C338.483 267.705 334.906 264.129 330.495 264.129C326.084 264.129 322.507 267.705 322.507 272.116V334.915C322.531 339.408 326.103 343.074 330.597 343.219H378.441C382.853 343.219 386.429 339.642 386.429 335.231C386.429 330.82 382.853 327.243 378.441 327.243H378.445Z" fill="#1A3300"/>
<path d="M413.369 196.65V106.806C413.369 84.8596 396.414 66.6413 375.278 66.6413H292.553V50.069C292.553 28.1181 275.041 10.7267 253.905 10.7267H159.842C138.706 10.7267 121.814 28.1181 121.814 50.069V66.6413H38.4647C17.329 66.6413 0 84.8596 0 106.806V321.931C0 343.878 17.329 362.19 38.4647 362.19H190.35C206.454 427.091 265.902 476.71 336.58 476.71C419.589 476.71 486.998 409.063 486.998 326.054C486.998 271.176 457.301 222.957 413.369 196.65V196.65ZM137.79 50.069C137.79 36.9289 147.513 26.7023 159.842 26.7023H253.905C266.234 26.7023 276.577 36.9289 276.577 50.069V66.6413H137.79V50.069ZM15.9756 106.806C15.9756 93.6664 26.1398 82.6169 38.4647 82.6169H375.278C387.607 82.6169 397.393 93.6664 397.393 106.806V188.358C378.254 179.672 357.473 175.202 336.459 175.241C287.366 175.151 241.342 199.111 213.26 239.377H38.4647C26.1398 239.377 15.9756 229.014 15.9756 215.874V106.806ZM38.4647 346.214C26.1398 346.214 15.9756 335.071 15.9756 321.931V248.176C21.9664 252.892 30.1298 255.353 38.4647 255.353H203.478C191.996 277.132 186.009 301.388 186.04 326.007C186.056 332.762 186.492 339.513 187.347 346.214H38.4647ZM336.58 460.504C262.38 460.504 202.016 400.14 202.016 325.94C202.016 251.741 262.38 191.377 336.58 191.377C410.779 191.377 471.144 251.741 471.144 325.94C471.144 400.14 410.779 460.504 336.58 460.504Z" fill="#1A3300"/>
</svg>
