<svg width="512" height="512" viewBox="0 0 512 512" fill="none" xmlns="http://www.w3.org/2000/svg">
<g clip-path="url(#clip0)">
<path d="M375.979 333.397L307.2 324.266L256 401.066L204.8 324.266L136.021 333.397C102.118 337.928 76.8 366.856 76.8 401.066V512H435.2V401.067C435.2 366.857 409.882 337.929 375.979 333.397Z" fill="#1A3300"/>
<path d="M307.2 324.267V256H204.8V324.267L256 401.067L307.2 324.267Z" fill="#FEDAC6"/>
<path d="M76.8 400.384V512H110.933V341.333C89.83 353.519 76.826 376.021 76.8 400.384Z" fill="#0E1B01"/>
<path d="M145.066 452.267H110.933V512H145.066V452.267Z" fill="#FEDAC6"/>
<path d="M110.933 452.267H76.8V512H110.933V452.267Z" fill="#F5C4B0"/>
<path d="M435.2 452.267H366.933V512H435.2V452.267Z" fill="#FEDAC6"/>
<path d="M307.2 310.784V256H204.8V310.784C243.2 328.789 268.8 328.789 307.2 310.784Z" fill="#F5C4B0"/>
<path d="M349.867 128H341.334V179.2H349.867C364.007 179.2 375.467 167.74 375.467 153.6C375.467 139.46 364.006 128 349.867 128Z" fill="#FEDAC6"/>
<path d="M136.533 162.133C136.533 176.273 147.993 187.733 162.133 187.733H170.666V136.533H162.133C147.994 136.533 136.533 147.994 136.533 162.133Z" fill="#F5C4B0"/>
<path d="M325.291 59.733H186.197L162.133 140.458L169.216 216.49C169.958 225.501 173.542 234.052 179.456 240.895L222.123 289.962C227.03 295.449 234.053 298.555 241.408 298.495H269.397C276.753 298.555 283.776 295.449 288.682 289.962L331.349 240.895C337.263 234.051 340.847 225.501 341.589 216.49L349.866 136.533L351.914 130.474L325.291 59.733Z" fill="#FEDAC6"/>
<path d="M176.811 59.733C160.743 59.767 147.738 72.823 147.781 88.9C147.79 91.981 148.284 95.044 149.249 97.962L162.134 136.533V140.458L186.198 59.733H176.811V59.733Z" fill="#AA7610"/>
<path d="M362.752 97.963C367.795 82.705 359.509 66.245 344.252 61.201C341.334 60.237 338.27 59.742 335.19 59.733H325.291L351.915 130.474L362.752 97.963Z" fill="#AA7610"/>
<path d="M324.267 59.733C324.267 31.454 301.346 8.53299 273.067 8.53299H145.067C145.067 36.812 167.988 59.733 196.267 59.733H324.267Z" fill="#AA7610"/>
<path d="M281.856 61.833C277.163 43.316 266.163 26.812 250.88 15.36L261.12 1.707C279.509 15.488 292.753 35.354 298.411 57.634L281.856 61.833Z" fill="#F5B776"/>
<path d="M239.198 61.833C234.505 43.324 223.505 26.821 208.222 15.369L218.453 1.707C236.851 15.497 250.095 35.362 255.744 57.643L239.198 61.833Z" fill="#F5B776"/>
<path d="M196.531 61.833C191.838 43.324 180.838 26.821 165.555 15.369L175.786 1.707C194.184 15.497 207.428 35.362 213.077 57.643L196.531 61.833Z" fill="#F5B776"/>
<path d="M208.128 196.267L204.8 59.733H187.733L162.133 136.533L170.666 206.848C170.709 226.466 179.199 245.12 193.962 258.048C193.962 258.048 228.693 296.107 233.727 298.667L214.954 245.163C209.348 229.504 207.019 212.864 208.128 196.267Z" fill="#F5C4B0"/>
<path d="M349.867 187.733H341.334V170.666H349.867C359.279 170.666 366.934 163.012 366.934 153.599C366.934 144.186 359.28 136.532 349.867 136.532H341.334V119.465H349.867C368.692 119.465 384 134.774 384 153.598C384 172.422 368.691 187.733 349.867 187.733Z" fill="black"/>
<path d="M170.667 196.267H162.134C143.309 196.267 128.001 180.958 128.001 162.134C128.001 143.31 143.309 128 162.133 128H170.666V145.067H162.133C152.721 145.067 145.066 152.721 145.066 162.134C145.066 171.546 152.72 179.201 162.133 179.201H170.666V196.267H170.667Z" fill="black"/>
<path d="M264.533 204.8H238.933C236.399 204.8 234.001 203.674 232.379 201.728C230.758 199.782 230.084 197.214 230.544 194.722L241.893 132.855L258.678 135.936L249.172 187.733H264.532V204.8H264.533Z" fill="black"/>
<path d="M269.577 238.933H230.4V221.866H269.568C274.978 221.866 280.277 219.664 284.092 215.833L296.175 227.891C289.067 235.008 279.629 238.933 269.577 238.933Z" fill="black"/>
<path d="M241.741 307.2C232.098 307.2 222.84 303.07 216.363 295.825L173.62 246.664C166.461 238.378 162.211 228.249 161.315 217.361L153.737 138.317L141.159 100.668C137.993 91.094 138.744 80.896 143.267 71.919C147.781 62.942 155.529 56.26 165.07 53.103C168.859 51.849 172.801 51.209 176.786 51.2H335.19C355.96 51.251 372.796 68.164 372.754 88.917C372.745 92.902 372.105 96.844 370.843 100.642L358.265 138.308L350.935 217.284C350.048 228.087 345.789 238.216 338.656 246.477L295.716 295.74C289.162 303.07 279.904 307.2 270.193 307.2C270.108 307.2 270.014 307.2 269.928 307.2H242.007C241.92 307.2 241.826 307.2 241.741 307.2ZM176.811 68.267C174.652 68.267 172.493 68.625 170.42 69.308C165.206 71.032 160.974 74.675 158.507 79.591C156.032 84.498 155.631 90.07 157.346 95.284L170.223 133.829C170.428 134.443 170.564 135.075 170.624 135.723L178.304 215.851C178.91 223.224 181.743 229.974 186.505 235.486L229.155 284.536C232.346 288.103 236.852 290.185 241.938 290.134H269.996C270.039 290.134 270.09 290.134 270.141 290.134C275.056 290.134 279.69 288.069 282.932 284.442L325.778 235.29C330.523 229.803 333.356 223.053 333.944 215.791L341.377 135.748C341.445 135.091 341.573 134.451 341.787 133.828L354.672 95.257C355.346 93.209 355.696 91.05 355.705 88.874C355.722 77.542 346.506 68.292 335.174 68.266H176.811V68.267Z" fill="black"/>
<path d="M204.8 162.134C214.226 162.134 221.867 154.493 221.867 145.067C221.867 135.641 214.226 128 204.8 128C195.374 128 187.733 135.641 187.733 145.067C187.733 154.493 195.374 162.134 204.8 162.134Z" fill="black"/>
<path d="M298.667 162.134C308.093 162.134 315.734 154.493 315.734 145.067C315.734 135.641 308.093 128 298.667 128C289.241 128 281.6 135.641 281.6 145.067C281.6 154.493 289.241 162.134 298.667 162.134Z" fill="black"/>
<path d="M170.227 139.234L195.841 62.4409L179.652 57.0413L154.038 133.834L170.227 139.234Z" fill="black"/>
<path d="M341.871 130.995L316.271 62.728C315.913 61.772 315.733 60.757 315.733 59.733C315.733 36.207 296.593 17.066 273.066 17.066H154.462C158.421 36.513 175.659 51.199 196.267 51.199H221.867V68.266H196.267C163.328 68.266 136.534 41.471 136.534 8.533C136.534 3.823 140.357 0 145.067 0H273.067C305.468 0 331.921 25.933 332.775 58.129L357.854 125.005L341.871 130.995Z" fill="black"/>
<path d="M85.333 512H68.267V401.067C68.267 362.752 96.905 330.027 134.895 324.941L196.267 316.792V273.067H213.334V324.267C213.334 328.542 210.168 332.16 205.927 332.724L137.148 341.855C107.606 345.806 85.334 371.261 85.334 401.068V512H85.333Z" fill="black"/>
<path d="M443.733 512H426.666V401.067C426.666 371.26 404.394 345.805 374.843 341.863L306.073 332.732C301.832 332.16 298.666 328.542 298.666 324.267V273.067H315.733V316.792L377.096 324.941C415.095 330.018 443.733 362.752 443.733 401.067V512V512Z" fill="black"/>
<path d="M153.6 426.667H136.533V512H153.6V426.667Z" fill="black"/>
<path d="M145.067 443.733H76.8V460.8H145.067V443.733Z" fill="black"/>
<path d="M375.467 426.667H358.4V512H375.467V426.667Z" fill="black"/>
<path d="M435.2 443.733H366.933V460.8H435.2V443.733Z" fill="black"/>
<path d="M256 409.6C253.15 409.6 250.487 408.175 248.9 405.803L197.7 329.003L211.899 319.54L255.999 385.682L300.099 319.532L314.298 328.996L263.098 405.796C261.513 408.175 258.85 409.6 256 409.6Z" fill="black"/>
<path d="M204.8 426.667C203.29 426.667 201.779 426.266 200.457 425.472C198.324 424.218 196.847 422.093 196.404 419.652L179.337 325.785L196.131 322.739L211.44 406.92L253.305 392.968L258.707 409.147L207.507 426.214C206.618 426.522 205.705 426.667 204.8 426.667Z" fill="black"/>
<path d="M307.2 426.667C306.295 426.667 305.382 426.522 304.503 426.223L253.303 409.156L258.705 392.977L300.57 406.929L315.879 322.748L332.664 325.794L315.597 419.661C315.153 422.093 313.677 424.218 311.552 425.481C310.221 426.266 308.719 426.667 307.2 426.667Z" fill="black"/>
<path d="M264.534 401.067H247.467V469.334H264.534V401.067Z" fill="black"/>
<path d="M226.133 460.8C219.076 460.8 213.333 455.057 213.333 448C213.333 440.943 219.076 435.2 226.133 435.2C233.19 435.2 238.933 440.943 238.933 448C238.933 455.057 233.19 460.8 226.133 460.8ZM226.133 443.733C223.778 443.733 221.866 445.653 221.866 448C221.866 450.347 223.777 452.267 226.133 452.267C228.489 452.267 230.4 450.347 230.4 448C230.4 445.653 228.489 443.733 226.133 443.733Z" fill="black"/>
</g>
<defs>
<clipPath id="clip0">
<rect width="512" height="512" fill="white"/>
</clipPath>
</defs>
</svg>
