<svg width="144" height="144" viewBox="0 0 144 144" fill="none" xmlns="http://www.w3.org/2000/svg">
<circle cx="71.8115" cy="71.8115" r="70" transform="rotate(1.50263 71.8115 71.8115)" fill="#1A3300"/>
<path d="M53.32 54.828C53.008 54.828 52.792 54.744 52.672 54.576C52.576 54.432 52.528 54.18 52.528 53.82V50.544C52.528 48.912 52.48 46.932 52.384 44.604C52.36 44.172 52.348 43.548 52.348 42.732C52.276 41.028 52.24 39.684 52.24 38.7L52.276 36.684C52.3 36.084 52.312 35.412 52.312 34.668C52.312 34.02 52.3 33.444 52.276 32.94C52.252 32.58 52.228 32.28 52.204 32.04C52.204 31.8 52.192 31.608 52.168 31.464L52.096 31.716C51.832 33.468 51.436 35.772 50.908 38.628C50.38 41.484 49.948 43.776 49.612 45.504C49.276 47.04 49.06 48.132 48.964 48.78C48.916 49.092 48.808 49.344 48.64 49.536C48.496 49.728 48.328 49.824 48.136 49.824C47.944 49.824 47.776 49.728 47.632 49.536C47.488 49.344 47.404 49.068 47.38 48.708C47.212 47.556 46.6 44.34 45.544 39.06C44.488 33.78 43.9 31.044 43.78 30.852C43.708 33.012 43.672 35.436 43.672 38.124C43.672 40.236 43.684 42.144 43.708 43.848C43.732 45.552 43.744 47.46 43.744 49.572C43.744 49.932 43.78 50.496 43.852 51.264L43.924 52.992C43.924 53.448 43.84 53.76 43.672 53.928C42.976 53.928 42.628 53.304 42.628 52.056V46.044L42.664 42.408C42.688 41.328 42.7 40.104 42.7 38.736C42.7 37.152 42.712 35.736 42.736 34.488L42.808 30.204V27.036C42.808 26.916 42.856 26.808 42.952 26.712C43.072 26.616 43.192 26.568 43.312 26.568C43.504 26.568 43.636 26.664 43.708 26.856C43.924 27.576 44.464 29.7 45.328 33.228C46.192 36.756 46.84 39.48 47.272 41.4C47.488 42.528 47.836 44.52 48.316 47.376L48.568 45.972C48.64 45.54 48.748 44.94 48.892 44.172C49.18 42.3 49.36 41.244 49.432 41.004L51.088 32.184L51.412 30.312L51.808 28.296L51.988 27.216C52.012 26.976 52.084 26.796 52.204 26.676C52.324 26.532 52.456 26.46 52.6 26.46C52.72 26.46 52.828 26.52 52.924 26.64C53.02 26.76 53.068 26.928 53.068 27.144V30.708C53.068 32.508 53.176 35.232 53.392 38.88C53.56 42.24 53.644 44.94 53.644 46.98C53.644 47.628 53.68 48.624 53.752 49.968C53.8 51.696 53.824 52.896 53.824 53.568C53.824 54.096 53.788 54.444 53.716 54.612C53.62 54.756 53.488 54.828 53.32 54.828Z" fill="white"/>
<path d="M46.456 81.216C46.216 81.216 46.064 81.184 46 81.12C45.936 81.072 45.888 80.928 45.856 80.688C45.712 79.52 45.624 78.792 45.592 78.504L45.472 77.544C45.12 77.464 44.72 77.424 44.272 77.424L43.408 77.376C43.024 77.328 42.744 77.304 42.568 77.304C42.472 77.304 42.416 77.344 42.4 77.424C42.4 77.472 42.392 77.496 42.376 77.496L42.328 77.976C42.312 78.264 42.224 78.84 42.064 79.704C41.984 80.136 41.888 80.472 41.776 80.712C41.648 80.984 41.528 81.12 41.416 81.12C41.32 81.12 41.216 81.08 41.104 81C40.992 80.904 40.936 80.808 40.936 80.712L40.96 80.64L40.984 80.568C41.272 79.432 41.512 78.304 41.704 77.184L41.992 75.696L42.28 73.872C42.28 73.872 42.368 73.344 42.544 72.288C42.624 71.856 42.768 71.16 42.976 70.2C43.2 69.112 43.336 68.368 43.384 67.968C43.4 67.92 43.432 67.624 43.48 67.08C43.544 66.472 43.6 66.024 43.648 65.736C43.696 65.32 43.744 65.08 43.792 65.016H43.96C44.008 65.032 44.064 65.04 44.128 65.04C44.32 65.04 44.464 64.992 44.56 64.896C44.672 64.896 44.768 64.936 44.848 65.016C44.944 65.08 44.992 65.16 44.992 65.256C44.992 66.024 45.048 66.904 45.16 67.896C45.224 68.408 45.272 68.832 45.304 69.168C45.48 71.232 45.928 75.104 46.648 80.784V80.856C46.648 81.016 46.584 81.136 46.456 81.216ZM45.352 76.896C45.192 74.592 44.888 71.192 44.44 66.696L43.144 73.104C42.776 74.944 42.592 76.104 42.592 76.584C42.592 76.664 42.896 76.736 43.504 76.8C44.112 76.864 44.648 76.896 45.112 76.896H45.352ZM50.8354 80.664L50.8114 79.776C50.7954 79.52 50.7874 79.232 50.7874 78.912C50.7874 78.752 50.7954 78.616 50.8114 78.504L50.8354 78.072C50.8354 77.912 50.8034 77.72 50.7394 77.496C50.7394 76.424 50.6594 74.432 50.4994 71.52C50.3394 68.704 50.2514 66.792 50.2354 65.784C49.2434 65.784 48.5794 65.76 48.2434 65.712C47.9234 65.632 47.7634 65.504 47.7634 65.328C47.8434 65.152 47.9954 65.064 48.2194 65.064C48.6994 65.064 49.3954 65.096 50.3074 65.16C51.1394 65.24 51.8354 65.28 52.3954 65.28H52.8994L53.4034 65.256C53.6914 65.256 53.8354 65.36 53.8354 65.568C53.8354 65.664 53.7794 65.744 53.6674 65.808C53.5714 65.856 53.4514 65.88 53.3074 65.88C52.9874 65.88 52.6514 65.864 52.2994 65.832L51.2674 65.784C51.2034 65.784 51.1714 65.808 51.1714 65.856C51.1554 65.904 51.1474 66.056 51.1474 66.312C51.1474 67.864 51.2434 70.216 51.4354 73.368C51.6114 76.632 51.6994 78.976 51.6994 80.4C51.6994 80.512 51.6274 80.616 51.4834 80.712C51.3554 80.808 51.2274 80.856 51.0994 80.856L50.8354 80.664Z" fill="white"/>
<path d="M43.744 118.216C43.576 118.216 43.432 118.144 43.312 118C43.216 117.856 43.168 117.676 43.168 117.46V116.884V116.02C43.168 114.508 43.108 112.804 42.988 110.908C42.892 108.892 42.844 107.188 42.844 105.796C42.844 104.5 42.784 101.992 42.664 98.272C42.52 94.912 42.448 92.404 42.448 90.748C42.448 90.628 42.496 90.532 42.592 90.46C42.712 90.364 42.844 90.316 42.988 90.316C43.42 90.316 43.636 90.496 43.636 90.856C43.636 95.296 43.672 98.62 43.744 100.828L43.924 107.272C43.924 108.28 43.996 109.924 44.14 112.204L44.356 116.668C44.356 116.74 44.392 116.776 44.464 116.776C44.488 116.8 44.644 116.812 44.932 116.812H47.164C47.476 116.812 47.632 117.028 47.632 117.46C47.632 117.652 47.596 117.82 47.524 117.964C47.452 118.084 47.344 118.144 47.2 118.144L46.948 118.18H46.66C46.156 118.204 45.184 118.216 43.744 118.216ZM52.1705 118.468C51.7385 118.468 51.4985 118.216 51.4505 117.712V117.244C51.4745 117.124 51.4865 116.98 51.4865 116.812L51.3425 116.668C51.5345 116.164 51.6305 115.672 51.6305 115.192C51.6305 114.64 51.5945 113.848 51.5225 112.816L51.4505 110.44C51.4505 109.24 51.4865 107.44 51.5585 105.04C51.6545 102.904 51.7025 101.092 51.7025 99.604L51.6305 97.444C51.5825 96.796 51.5585 96.076 51.5585 95.284C51.5585 94.924 51.6425 94.672 51.8105 94.528C51.9785 94.36 52.2425 94.276 52.6025 94.276C52.8425 94.276 53.0345 94.348 53.1785 94.492C53.2265 94.516 53.5745 94.564 54.2225 94.636C54.8225 94.708 55.3385 94.816 55.7705 94.96C56.2265 95.104 56.4545 95.284 56.4545 95.5C56.4545 95.74 56.2265 95.98 55.7705 96.22C54.4025 95.764 53.4305 95.536 52.8545 95.536L52.6745 95.752C52.6985 95.968 52.7105 96.484 52.7105 97.3C52.7105 98.332 52.6865 99.256 52.6385 100.072C52.6145 100.912 52.6025 101.848 52.6025 102.88C52.6025 103.552 52.7705 103.888 53.1065 103.888L53.6825 103.852C53.8745 103.828 54.0785 103.816 54.2945 103.816C55.2305 103.816 55.6985 104.032 55.6985 104.464C55.6985 104.728 55.6385 104.956 55.5185 105.148C55.3985 105.316 55.2185 105.4 54.9785 105.4C54.6185 105.4 54.3425 105.304 54.1505 105.112L52.9985 104.932H52.8185L52.6385 105.112V105.22C52.6865 105.628 52.7105 106.576 52.7105 108.064C52.7105 109 52.6985 109.852 52.6745 110.62L52.6385 113.176C52.6385 114.112 52.6745 115.072 52.7465 116.056C52.7705 116.608 52.8905 116.98 53.1065 117.172C53.3225 117.34 53.7185 117.424 54.2945 117.424L54.9425 117.388C55.1585 117.364 55.3985 117.352 55.6625 117.352C56.3585 117.352 56.7065 117.508 56.7065 117.82C56.7065 118.252 56.1785 118.468 55.1225 118.468H52.1705ZM68.4735 119.188C68.2095 119.188 68.0415 119.044 67.9695 118.756C67.8975 118.468 67.8615 118.192 67.8615 117.928V117.604C67.7655 116.644 67.6335 115.744 67.4655 114.904C67.2495 113.728 67.1055 112.816 67.0335 112.168C66.9615 111.52 66.8535 110.344 66.7095 108.64C66.4935 105.952 66.2895 103.912 66.0975 102.52C65.8815 100.744 65.6535 99.736 65.4135 99.496L65.1975 101.44C65.0775 102.592 65.0175 103.408 65.0175 103.888C65.0175 104.896 64.9695 105.904 64.8735 106.912C64.7775 107.92 64.6095 109.204 64.3695 110.764L63.9375 113.752C63.9135 113.8 63.8895 113.896 63.8655 114.04C63.8655 114.16 63.8535 114.316 63.8295 114.508C63.7815 115.18 63.6495 116.068 63.4335 117.172C63.3615 117.652 63.2535 118.036 63.1095 118.324C63.0135 118.612 62.8695 118.756 62.6775 118.756C62.3415 118.756 62.0655 118.216 61.8495 117.136C61.6815 116.176 61.5255 114.652 61.3815 112.564C61.3095 111.244 61.2495 110.26 61.2015 109.612C61.1535 108.964 61.0575 108.196 60.9135 107.308L60.7695 106.192C60.5775 104.896 60.4575 103.972 60.4095 103.42C60.3615 102.868 60.3135 102.064 60.2655 101.008C60.2415 100.216 60.2055 99.508 60.1575 98.884C60.1095 98.236 60.0255 97.564 59.9055 96.868C59.8095 96.268 59.6535 95.632 59.4375 94.96C59.5335 94.768 59.7255 94.672 60.0135 94.672C60.3015 94.672 60.5055 94.948 60.6255 95.5C60.6495 95.596 60.6855 96.076 60.7335 96.94V97.408C60.7575 97.912 61.0335 100.288 61.5615 104.536C62.0415 108.376 62.3175 111.508 62.3895 113.932C62.4855 114.148 62.5455 114.472 62.5695 114.904C62.6175 115.384 62.6775 115.708 62.7495 115.876H62.7855L63.3615 112.096C63.3615 111.76 63.4335 111.184 63.5775 110.368C63.7455 109.096 63.8895 107.848 64.0095 106.624C64.1295 105.16 64.2015 103.888 64.2255 102.808C64.2975 101.08 64.3815 99.928 64.4775 99.352L64.5855 98.452C64.6815 97.54 64.7295 97.096 64.7295 97.12L65.3775 96.832C65.5455 96.832 65.6895 96.88 65.8095 96.976C65.9295 97.072 65.9895 97.192 65.9895 97.336C65.9895 97.408 65.9535 97.504 65.8815 97.624C66.8415 100.864 67.4895 104.74 67.8255 109.252L67.8975 110.584C67.9215 111.664 68.0055 112.588 68.1495 113.356C68.2935 113.98 68.4255 114.436 68.5455 114.724C68.8335 113.908 69.0735 111.916 69.2655 108.748C69.4575 105.58 69.5535 102.832 69.5535 100.504C69.5535 100.072 69.6375 99.148 69.8055 97.732C69.9735 96.556 70.0575 95.62 70.0575 94.924C70.0575 94.708 70.0095 94.504 69.9135 94.312C69.9135 93.928 70.1535 93.736 70.6335 93.736C70.8255 93.736 70.9455 93.76 70.9935 93.808C71.0655 93.856 71.1015 93.976 71.1015 94.168C71.1015 94.84 71.0415 95.356 70.9215 95.716L70.9935 95.932C70.8015 96.964 70.7055 98.092 70.7055 99.316C70.7055 99.532 70.7295 99.664 70.7775 99.712L70.5615 100.432L70.6695 100.684C70.5975 100.828 70.5615 100.972 70.5615 101.116L70.6695 101.8L70.5615 101.944C70.5615 102.784 70.4655 104.656 70.2735 107.56C70.0815 110.464 69.9375 112.312 69.8415 113.104L69.6255 114.076C69.4815 114.58 69.4095 114.976 69.4095 115.264C69.4095 116.032 69.3735 116.764 69.3015 117.46C69.2775 117.94 69.1815 118.36 69.0135 118.72C68.8455 119.032 68.6655 119.188 68.4735 119.188ZM68.5815 114.904L68.5455 114.868V114.904H68.5815ZM77.4071 118C76.8551 118 76.5311 117.88 76.4351 117.64C76.3151 117.64 76.2191 117.652 76.1471 117.676H75.8591C75.3311 117.676 74.9951 117.556 74.8511 117.316C74.8511 117.148 74.9471 117.004 75.1391 116.884L75.3191 116.704H76.3631L76.5071 116.56L76.5791 116.236L76.6151 115.804C76.6151 114.34 76.5791 113.032 76.5071 111.88L76.4351 110.548L76.3631 107.92C76.3631 106.984 76.3991 105.58 76.4711 103.708L76.5431 99.532C76.5431 97.708 76.4831 96.316 76.3631 95.356C76.1471 95.284 75.7871 95.248 75.2831 95.248L74.8871 95.284C74.7431 95.308 74.5871 95.32 74.4191 95.32C73.9631 95.32 73.7351 95.116 73.7351 94.708C73.7351 94.612 73.8431 94.516 74.0591 94.42C74.2751 94.324 74.4551 94.276 74.5991 94.276C75.5111 94.276 76.4231 94.324 77.3351 94.42C77.8871 94.444 78.4391 94.552 78.9911 94.744C79.4231 94.888 79.6391 95.092 79.6391 95.356C79.6391 95.404 79.6031 95.5 79.5311 95.644L78.7031 95.716C78.5351 95.572 78.1871 95.5 77.6591 95.5L77.4791 95.608C77.5511 95.824 77.5871 96.46 77.5871 97.516C77.5871 99.1 77.5751 100.528 77.5511 101.8L77.4791 106.084C77.4791 107.164 77.5271 108.472 77.6231 110.008C77.6951 111.76 77.7311 113.08 77.7311 113.968V114.436C77.7071 114.604 77.6951 114.82 77.6951 115.084C77.6951 115.636 77.7311 115.972 77.8031 116.092L77.7671 116.164C77.7671 116.404 78.0311 116.524 78.5591 116.524C78.7751 116.524 78.9551 116.512 79.0991 116.488H79.6391C80.3351 116.488 80.6831 116.656 80.6831 116.992C80.6831 117.208 80.6111 117.388 80.4671 117.532C80.3231 117.652 80.1311 117.712 79.8911 117.712C79.6751 117.712 79.4831 117.688 79.3151 117.64C79.1231 117.616 78.9191 117.604 78.7031 117.604C78.5591 117.604 78.3431 117.664 78.0551 117.784C77.7671 117.928 77.5511 118 77.4071 118ZM86.6701 118.252C86.2141 118.108 85.8181 117.904 85.4821 117.64C85.1701 117.376 84.8701 116.98 84.5821 116.452C84.0781 115.492 83.7781 114.112 83.6821 112.312C83.6341 111.496 83.6101 110.776 83.6101 110.152V106.048C83.6101 104.488 83.6581 102.976 83.7541 101.512C83.8261 100.432 83.9341 99.52 84.0781 98.776C84.2221 98.032 84.4501 97.288 84.7621 96.544C85.0981 95.776 85.4701 95.236 85.8781 94.924C86.0461 94.78 86.3701 94.612 86.8501 94.42C87.1621 94.3 87.4621 94.168 87.7501 94.024H89.1901H89.2981C89.3221 94.048 89.3581 94.06 89.4061 94.06L89.5861 94.096L89.7301 94.204C89.8021 94.276 89.8381 94.324 89.8381 94.348C89.8621 94.396 89.8741 94.468 89.8741 94.564L89.4061 95.104H87.8941C87.4381 95.104 87.0181 95.332 86.6341 95.788C86.2741 96.22 85.9981 96.772 85.8061 97.444C85.6141 98.044 85.4581 98.752 85.3381 99.568C85.2181 100.384 85.1461 101.092 85.1221 101.692C85.0741 102.46 85.0501 102.988 85.0501 103.276L84.9781 103.456C84.9781 104.8 84.9541 106.012 84.9061 107.092L84.8341 110.728C84.8341 111.784 84.9061 112.756 85.0501 113.644C85.1701 114.604 85.5181 115.468 86.0941 116.236C86.6461 117.004 87.4981 117.388 88.6501 117.388C89.0101 117.388 89.3101 117.28 89.5501 117.064C89.9101 117.064 90.0901 117.196 90.0901 117.46C90.0901 117.628 89.9341 117.82 89.6221 118.036C89.3341 118.276 89.0341 118.456 88.7221 118.576H87.5341L86.6701 118.252ZM102.156 118.648C101.58 118.648 100.896 117.568 100.104 115.408C99.3597 113.416 98.7117 111.256 98.1597 108.928C97.6077 106.6 97.3077 104.968 97.2597 104.032L97.1517 103.888L96.6117 105.04C96.3477 105.544 96.1437 105.964 95.9997 106.3C95.8797 106.612 95.7597 107.008 95.6397 107.488C95.4957 107.944 95.4237 108.412 95.4237 108.892C95.4237 109.372 95.3997 109.804 95.3517 110.188L95.2797 111.484V116.092C95.2797 116.308 95.3157 116.656 95.3877 117.136C95.4597 117.568 95.4957 117.904 95.4957 118.144C95.4957 118.264 95.4357 118.36 95.3157 118.432C95.1957 118.528 95.0637 118.576 94.9197 118.576C94.6077 118.576 94.3917 118.528 94.2717 118.432C94.1757 118.336 94.1277 118.132 94.1277 117.82V111.052C94.1277 110.668 94.1877 109.912 94.3077 108.784C94.4277 107.656 94.4877 106.9 94.4877 106.516C94.4877 105.508 94.5477 104.344 94.6677 103.024C94.7637 101.68 94.8117 100.528 94.8117 99.568V94.564C94.9557 94.3 95.1837 94.168 95.4957 94.168C95.6877 94.168 95.8437 94.24 95.9637 94.384C96.1077 94.504 96.1797 94.66 96.1797 94.852C95.9877 95.284 95.8917 95.86 95.8917 96.58L95.8197 100.36C95.7717 101.512 95.7477 102.784 95.7477 104.176C95.9877 104.104 96.9237 102.448 98.5557 99.208C100.188 95.992 101.088 94.384 101.256 94.384C101.88 94.384 102.192 94.588 102.192 94.996C100.656 97.276 99.3837 99.496 98.3757 101.656L98.3397 102.808C98.3157 103.144 98.3037 103.528 98.3037 103.96C98.3037 105.016 98.7117 106.996 99.5277 109.9C100.344 112.804 101.04 114.82 101.616 115.948C101.88 116.308 102.036 116.512 102.084 116.56C102.324 116.896 102.492 117.184 102.588 117.424C102.708 117.64 102.768 117.868 102.768 118.108C102.768 118.276 102.708 118.408 102.588 118.504C102.468 118.6 102.324 118.648 102.156 118.648ZM108.099 118C107.547 118 107.223 117.88 107.127 117.64C107.007 117.64 106.911 117.652 106.839 117.676H106.551C106.023 117.676 105.687 117.556 105.543 117.316C105.543 117.148 105.639 117.004 105.831 116.884L106.011 116.704H107.055L107.199 116.56L107.271 116.236L107.307 115.804C107.307 114.34 107.271 113.032 107.199 111.88L107.127 110.548L107.055 107.92C107.055 106.984 107.091 105.58 107.163 103.708L107.235 99.532C107.235 97.708 107.175 96.316 107.055 95.356C106.839 95.284 106.479 95.248 105.975 95.248L105.579 95.284C105.435 95.308 105.279 95.32 105.111 95.32C104.655 95.32 104.427 95.116 104.427 94.708C104.427 94.612 104.535 94.516 104.75 94.42C104.967 94.324 105.147 94.276 105.291 94.276C106.203 94.276 107.115 94.324 108.027 94.42C108.579 94.444 109.131 94.552 109.683 94.744C110.115 94.888 110.331 95.092 110.331 95.356C110.331 95.404 110.295 95.5 110.223 95.644L109.395 95.716C109.227 95.572 108.879 95.5 108.351 95.5L108.171 95.608C108.243 95.824 108.279 96.46 108.279 97.516C108.279 99.1 108.267 100.528 108.243 101.8L108.171 106.084C108.171 107.164 108.219 108.472 108.314 110.008C108.387 111.76 108.423 113.08 108.423 113.968V114.436C108.399 114.604 108.387 114.82 108.387 115.084C108.387 115.636 108.423 115.972 108.495 116.092L108.459 116.164C108.459 116.404 108.723 116.524 109.251 116.524C109.467 116.524 109.647 116.512 109.791 116.488H110.331C111.027 116.488 111.375 116.656 111.375 116.992C111.375 117.208 111.303 117.388 111.159 117.532C111.015 117.652 110.823 117.712 110.583 117.712C110.367 117.712 110.175 117.688 110.007 117.64C109.815 117.616 109.611 117.604 109.395 117.604C109.251 117.604 109.035 117.664 108.747 117.784C108.459 117.928 108.243 118 108.099 118Z" fill="white"/>
<path d="M57.556 81.144C57.34 81.144 57.148 81.06 56.98 80.892C56.836 80.7 56.764 80.496 56.764 80.28C56.764 80.04 56.86 79.824 57.052 79.632C57.244 79.416 57.46 79.308 57.7 79.308C57.892 79.308 58.084 79.416 58.276 79.632C58.468 79.824 58.564 80.028 58.564 80.244C58.564 80.844 58.228 81.144 57.556 81.144Z" fill="#336600"/>
</svg>
